<?xml version="1.0" encoding="UTF-8" standalone="no"?><!DOCTYPE svg PUBLIC "-//W3C//DTD SVG 1.1//EN" "http://www.w3.org/Graphics/SVG/1.1/DTD/svg11.dtd"><svg width="100%" height="100%" viewBox="0 0 4000 3196" version="1.1" xmlns="http://www.w3.org/2000/svg" xmlns:xlink="http://www.w3.org/1999/xlink" xml:space="preserve" xmlns:serif="http://www.serif.com/" style="fill-rule:evenodd;clip-rule:evenodd;stroke-linejoin:round;stroke-miterlimit:2;"><g><path d="M267.063,1348.512c-50.641,0 -89.287,-11.194 -115.94,-33.583c-26.653,-22.388 -44.91,-54.372 -54.772,-95.951c-9.862,-41.579 -14.792,-91.153 -14.792,-148.724l0,-463.762l-81.558,0l0,-145.525l81.558,0l0,-215.889l161.517,0l0,215.889l111.143,0l0,145.525l-111.143,0l0,486.95c0,34.116 5.064,59.303 15.192,75.561c10.128,16.258 26.653,24.387 49.575,24.387c10.128,0 19.057,-0.8 26.786,-2.399c7.729,-1.599 13.993,-3.465 18.79,-5.597l0,147.924c-10.661,4.264 -22.255,7.863 -34.782,10.794c-12.527,2.932 -29.718,4.398 -51.573,4.398Z" style="fill:#fff;fill-rule:nonzero;"/><path d="M402.193,1335.719l0,-874.75l161.517,0l0,97.55c3.198,-21.322 13.06,-40.246 29.585,-56.771c16.525,-16.525 36.648,-29.585 60.369,-39.18c23.721,-9.595 47.576,-14.393 71.563,-14.393l0,179.108c-6.93,-2.665 -14.259,-4.398 -21.989,-5.197c-7.729,-0.8 -15.325,-1.199 -22.788,-1.199c-35.182,0 -63.434,9.595 -84.756,28.785c-21.322,19.19 -31.984,45.31 -31.984,78.36l0,607.688l-161.517,0Z" style="fill:#fff;fill-rule:nonzero;"/><path d="M789.194,1335.719l0,-874.75l161.517,0l0,874.75l-161.517,0Zm0,-1013.879l0,-161.517l161.517,0l0,161.517l-161.517,0Z" style="fill:#fff;fill-rule:nonzero;"/><path d="M1038.666,1420.751l0,-959.783l161.517,0l0,57.57c20.256,-19.19 41.579,-35.715 63.967,-49.575c22.388,-13.86 43.711,-20.789 63.967,-20.789c27.719,0 50.774,8.396 69.164,25.187c18.391,16.791 32.25,38.247 41.579,64.367c9.329,26.12 13.993,53.306 13.993,81.558l0,558.113c0,28.252 -4.798,55.571 -14.393,81.958c-9.595,26.386 -23.721,47.842 -42.378,64.367c-18.657,16.525 -41.312,24.787 -67.965,24.787c-22.388,0 -44.244,-7.063 -65.566,-21.189c-21.322,-14.126 -42.112,-30.518 -62.368,-49.175l-0,142.603l-161.517,0Zm217.488,-224.161c12.26,0 21.189,-3.731 26.786,-11.194c5.597,-7.463 8.396,-18.657 8.396,-33.583l0,-490.948c0,-20.256 -2.799,-35.448 -8.396,-45.577c-5.597,-10.128 -14.526,-15.192 -26.786,-15.192c-11.727,0 -23.988,4.931 -36.781,14.792c-12.793,9.862 -19.19,22.522 -19.19,37.98l0,490.948c0,12.793 6.397,24.787 19.19,35.982c12.793,11.194 25.054,16.791 36.781,16.791Z" style="fill:#fff;fill-rule:nonzero;"/><rect x="1532.812" y="160.323" width="161.517" height="1175.396" style="fill:#fff;fill-rule:nonzero;"/><path d="M1978.983,1348.512c-64.5,0 -115.274,-22.255 -152.322,-66.766c-37.048,-44.51 -55.571,-99.016 -55.571,-163.516l0,-439.774c0,-68.232 18.391,-123.67 55.172,-166.315c36.781,-42.645 88.221,-63.967 154.321,-63.967c43.178,0 80.359,9.862 111.543,29.585c31.184,19.723 55.038,46.509 71.563,80.359c16.525,33.849 24.787,72.363 24.787,115.541l0,254.269l-267.063,0l0,190.302c0,21.855 4.931,41.978 14.792,60.369c9.862,18.391 24.654,27.586 44.377,27.586c20.789,0 35.582,-8.529 44.377,-25.587c8.795,-17.058 13.193,-37.847 13.193,-62.368l0,-95.951l150.323,0l0,100.748c0,67.699 -18.257,122.204 -54.772,163.516c-36.515,41.312 -88.088,61.968 -154.72,61.968Zm-57.57,-546.919l116.74,0l0,-123.137c0,-23.988 -4.131,-44.91 -12.394,-62.768c-8.262,-17.857 -23.321,-26.786 -45.177,-26.786c-20.256,0 -35.182,9.195 -44.777,27.586c-9.595,18.391 -14.393,39.047 -14.393,61.968l0,123.137Z" style="fill:#fff;fill-rule:nonzero;"/></g><g><path d="M81.7,3179.133l0,-1649.475l307.453,0l132.407,855.034l11.221,87.523l4.488,0l11.221,-87.523l132.407,-855.034l307.453,0l0,1649.475l-224.418,0l0,-1106.383l-13.465,0l-8.977,69.57l-143.628,1036.813l-125.674,0l-143.628,-1036.813l-8.977,-69.57l-13.465,0l0,1106.383l-224.418,0Z" style="fill:#fff;fill-rule:nonzero;"/><path d="M1041.358,3179.133l249.104,-1649.475l296.232,0l249.104,1649.475l-235.639,0l-44.884,-336.628l-233.395,0l-44.884,336.628l-235.639,0Zm314.186,-592.465l166.07,0l-69.57,-554.313l-6.733,-87.523l-13.465,0l-6.733,87.523l-69.57,554.313Z" style="fill:#fff;fill-rule:nonzero;"/><path d="M1888.806,3179.133l0,-1649.475l226.663,0l224.418,859.522l20.198,76.302l13.465,0l0,-935.825l222.174,0l0,1649.475l-204.221,0l-246.86,-859.522l-20.198,-76.302l-13.465,0l0,935.825l-222.174,0Z" style="fill:#fff;fill-rule:nonzero;"/><path d="M2860.807,3179.133l0,-1400.371l-228.907,0l0,-249.104l700.185,0l0,249.104l-228.907,0l0,1400.371l-242.372,0Z" style="fill:#fff;fill-rule:nonzero;"/><path d="M3205.559,3179.133l249.104,-1649.475l296.232,0l249.104,1649.475l-235.639,0l-44.884,-336.628l-233.395,0l-44.884,336.628l-235.639,0Zm314.186,-592.465l166.07,0l-69.57,-554.313l-6.733,-87.523l-13.465,0l-6.733,87.523l-69.57,554.313Z" style="fill:#fff;fill-rule:nonzero;"/></g><path d="M2548.519,1185.021c-0.167,-0.167 0.398,-1.066 1.877,-2.551c511.996,-513.917 461.652,-707.232 447.03,-800.849c-13.316,-85.254 -50.831,-178.947 -110.477,-247.946c-41.084,-47.527 -156.427,-105.123 -156.427,-105.123c0,0 162.407,-33.226 318.306,11.591c181.97,52.312 252.781,104.684 272.078,106.358c40.556,3.52 44.861,-15.445 67.477,-20.597c21.853,-4.979 33.89,10.395 45.389,6.217c10.526,-3.825 31.106,-28.577 44.795,-35.221c12.552,-6.092 45.032,-8.789 41.852,0.62c-1.516,4.486 -16.017,16.619 -31.814,26.488c-16.978,10.606 -29.126,26.248 -29.118,29.346c0.051,20.526 21.298,55.795 40.643,75.045l0.258,0.257c19.345,19.249 54.72,40.321 75.246,40.27c3.099,-0.008 18.68,-12.234 29.201,-29.264c9.79,-15.846 21.851,-30.407 26.329,-31.946c9.393,-3.227 6.857,29.266 0.828,41.848c-6.576,13.722 -31.226,34.424 -34.998,44.969c-4.121,11.52 11.313,23.48 6.443,45.358c-5.04,22.642 -23.983,27.04 -20.262,67.579c1.771,19.289 54.493,89.838 107.71,271.546c45.592,155.674 13.173,318.244 13.173,318.244c0,0 -58.169,-115.055 -105.899,-155.903c-69.295,-59.302 -163.173,-96.351 -248.492,-109.243c-93.689,-14.157 -287.143,-63.431 -798.508,451.114c-1.478,1.487 -2.375,2.056 -2.542,1.89l-0.098,-0.098Zm347.707,-349.444l0.056,0.056c0.096,0.095 0.61,-0.231 1.458,-1.084c293.258,-295.082 404.201,-266.824 457.929,-258.705c48.929,7.393 102.766,28.64 142.506,62.649c27.373,23.425 60.731,89.407 60.731,89.407c0,0 18.592,-93.231 -7.555,-182.507c-30.519,-104.206 -60.754,-144.665 -61.769,-155.727c-2.134,-23.248 8.729,-25.77 11.62,-38.755c2.793,-12.547 -6.058,-19.405 -3.695,-26.012c2.163,-6.048 16.3,-17.92 20.071,-25.789c3.458,-7.216 4.912,-25.85 -0.475,-23.999c-2.568,0.882 -9.485,9.233 -15.099,18.32c-6.034,9.767 -14.969,16.778 -16.746,16.782c-11.771,0.029 -32.058,-12.055 -43.152,-23.094l-0.148,-0.147c-11.094,-11.039 -23.279,-31.265 -23.308,-43.037c-0.004,-1.777 6.962,-10.747 16.699,-16.83c9.06,-5.66 17.376,-12.618 18.245,-15.19c1.824,-5.396 -16.803,-3.849 -24.001,-0.356c-7.85,3.81 -19.652,18.005 -25.689,20.199c-6.595,2.396 -13.497,-6.421 -26.03,-3.565c-12.97,2.955 -15.439,13.831 -38.697,11.812c-11.067,-0.96 -51.675,-30.994 -156.032,-60.994c-89.405,-25.702 -182.543,-6.647 -182.543,-6.647c0,0 66.147,33.03 89.708,60.286c34.206,39.57 55.72,93.301 63.356,142.193c8.386,53.688 37.257,164.55 -256.363,459.272c-0.848,0.852 -1.172,1.368 -1.076,1.463Z" style="fill:#fff;"/><path d="M3124.118,606.546c-0.049,-0.048 0.116,-0.31 0.546,-0.742c148.989,-149.548 134.339,-205.802 130.084,-233.044c-3.875,-24.809 -14.792,-52.073 -32.148,-72.151c-11.955,-13.83 -45.52,-30.59 -45.52,-30.59c0,0 47.26,-9.669 92.626,3.373c52.953,15.223 73.558,30.462 79.174,30.95c11.802,1.024 13.054,-4.494 19.636,-5.994c6.359,-1.449 9.862,3.025 13.208,1.809c3.063,-1.113 9.052,-8.316 13.035,-10.249c3.653,-1.773 13.104,-2.558 12.179,0.18c-0.441,1.305 -4.661,4.836 -9.258,7.708c-4.94,3.086 -8.476,7.638 -8.473,8.54c0.015,5.973 6.198,16.236 11.827,21.838l0.075,0.075c5.629,5.601 15.923,11.733 21.896,11.718c0.902,-0.002 5.436,-3.56 8.497,-8.516c2.849,-4.611 6.359,-8.848 7.662,-9.296c2.733,-0.939 1.995,8.516 0.241,12.178c-1.913,3.993 -9.087,10.017 -10.184,13.086c-1.199,3.352 3.292,6.833 1.875,13.199c-1.467,6.589 -6.979,7.869 -5.896,19.665c0.515,5.613 15.857,26.143 31.343,79.019c13.267,45.301 3.833,92.608 3.833,92.608c0,0 -16.927,-33.481 -30.816,-45.367c-20.165,-17.257 -47.483,-28.038 -72.31,-31.789c-27.263,-4.12 -83.557,-18.458 -232.362,131.272c-0.43,0.433 -0.691,0.598 -0.74,0.55" style="fill:#fff;"/></svg>